<svg xmlns="http://www.w3.org/2000/svg" width="23" height="16" viewBox="0 0 23 16">
  <metadata><?xpacket begin="﻿" id="W5M0MpCehiHzreSzNTczkc9d"?>
<x:xmpmeta xmlns:x="adobe:ns:meta/" x:xmptk="Adobe XMP Core 5.6-c138 79.159824, 2016/09/14-01:09:01        ">
   <rdf:RDF xmlns:rdf="http://www.w3.org/1999/02/22-rdf-syntax-ns#">
      <rdf:Description rdf:about=""/>
   </rdf:RDF>
</x:xmpmeta>
                                                                                                    
                                                                                                    
                                                                                                    
                                                                                                    
                                                                                                    
                                                                                                    
                                                                                                    
                                                                                                    
                                                                                                    
                                                                                                    
                                                                                                    
                                                                                                    
                                                                                                    
                                                                                                    
                                                                                                    
                                                                                                    
                                                                                                    
                                                                                                    
                                                                                                    
                                                                                                    
                           
<?xpacket end="w"?></metadata>
<defs>
    <style>
      .cls-1 {
        fill: #8d8d8d;
        fill-rule: evenodd;
      }
    </style>
  </defs>
  <path id="Man_UGG" class="cls-1" d="M505.443,1652.41s-6.925-.48-7.762-1.1c-0.305-.84.549-4.99,0.605-5.36,0.008-.22.008-0.22,0.022-0.8,0-.13,0-0.31-0.021-0.53a0.531,0.531,0,0,1-.487-0.43,0.546,0.546,0,0,1,.372-0.63c0-.04-0.009-0.07-0.013-0.1a0.534,0.534,0,0,1-.458-0.48,0.56,0.56,0,0,1,.284-0.55c-0.054-.26-0.113-0.52-0.176-0.74-0.154-.55-0.807-1.27-0.432-1.55,0.478-.35.786,0.02,1.121,0.74,0.937,2.01,5.492.45,7.879-.34,0.076,0.3.156,0.58,0.239,0.87l0.377-.05a0.342,0.342,0,0,1,.079.68l-0.253.03q0.148,0.465.31,0.9l0.279-.13a0.33,0.33,0,0,1,.444.16,0.354,0.354,0,0,1-.158.46l-0.32.15c0.111,0.27.227,0.54,0.345,0.79l0.247-.12a0.334,0.334,0,0,1,.444.17,0.339,0.339,0,0,1-.158.45l-0.235.11c0.118,0.23.237,0.46,0.361,0.67l0.227-.16a0.329,0.329,0,0,1,.464.08,0.352,0.352,0,0,1-.083.48l-0.246.17a9.075,9.075,0,0,0,.625.83l0.16-.2a0.324,0.324,0,0,1,.469-0.05,0.347,0.347,0,0,1,.045.48l-0.208.26a5.483,5.483,0,0,0,.583.48,1.687,1.687,0,0,1,.346.05l0.035-.16a0.337,0.337,0,0,1,.4-0.26,0.346,0.346,0,0,1,.253.41l-0.028.13a12.09,12.09,0,0,0,4.022.13,3.219,3.219,0,0,1,4.057,3.12c-0.639.45-1.6,1.42-6.093,1.95A18.908,18.908,0,0,1,505.443,1652.41Zm-8.143-.22c3.5,0.63,1.5.47,7.793,1,10.085,2.78,14.714-1,14.714-1l0.2,1.72-1.542.82-0.374-.37-0.628.16v0.52l-0.817.23-0.191-.46-0.618.09v0.54l-1.082.22-0.278-.4-0.827.16-0.168.46-0.771.03-0.326-.51-0.694.05-0.171.55h-0.882l-0.088-.46-0.9-.1-0.176.51-1.191-.06-0.094-.68-3.121-.69-0.68,1.27h-1.028l-0.178-.57-0.621-.11-0.21.61-0.95-.16-0.152-.61-0.9-.16-0.3.69-0.846-.15-0.153-.64-0.589-.16-0.476.59-0.983-.4Z" transform="translate(-497 -1640)"/>
</svg>
