<svg xmlns="http://www.w3.org/2000/svg" width="23" height="21" viewBox="0 0 23 21">
  <metadata><?xpacket begin="﻿" id="W5M0MpCehiHzreSzNTczkc9d"?>
<x:xmpmeta xmlns:x="adobe:ns:meta/" x:xmptk="Adobe XMP Core 5.6-c138 79.159824, 2016/09/14-01:09:01        ">
   <rdf:RDF xmlns:rdf="http://www.w3.org/1999/02/22-rdf-syntax-ns#">
      <rdf:Description rdf:about=""/>
   </rdf:RDF>
</x:xmpmeta>
                                                                                                    
                                                                                                    
                                                                                                    
                                                                                                    
                                                                                                    
                                                                                                    
                                                                                                    
                                                                                                    
                                                                                                    
                                                                                                    
                                                                                                    
                                                                                                    
                                                                                                    
                                                                                                    
                                                                                                    
                                                                                                    
                                                                                                    
                                                                                                    
                                                                                                    
                                                                                                    
                           
<?xpacket end="w"?></metadata>
<defs>
    <style>
      .cls-1 {
        fill: #8d8d8d;
        fill-rule: evenodd;
      }
    </style>
  </defs>
  <path id="Women_UGG" class="cls-1" d="M510.979,746.943s-10.4-.123-12.216-0.222c-1.661-.1-1.763-0.542-1.763-0.641V748a0.657,0.657,0,0,0,.383.592c1.457,0.617,5.137.3,5.137,0.3l0.051-.3,4.907-.074c8.484,0.3,11.244-.543,12.139-0.986a0.688,0.688,0,0,0,.383-0.642v-1.7C519.77,747.412,510.979,746.943,510.979,746.943Zm-1.917-7.819a0.789,0.789,0,0,1-.153-0.468l-0.256-10.088a0.583,0.583,0,0,0-.639-0.567l-4.855.2,0.664,14.577A14.805,14.805,0,0,1,509.062,739.124Zm-11.653,1.209a30.932,30.932,0,0,1,6.108,4.366l-0.742-16.5-5.111.2a0.646,0.646,0,0,0-.639.666c0.1,2.269.409,10.014,0.409,10.754C497.434,739.939,497.409,740.111,497.409,740.333Zm6.44,2.984,0.076,1.481v0.024a1.507,1.507,0,0,0,.691,1.431l-0.026.049c5.009,0.05,10.478.321,12.829-.172a5.755,5.755,0,0,0,1.482-.469,1.3,1.3,0,0,0,.511-1.949c-1.891-2.639-7.615-3.847-9.711-4.193a1.329,1.329,0,0,1-.332-0.123A15.544,15.544,0,0,0,503.849,743.317Zm-6.44-2.54c-0.051,1.233-.128,3.182-0.179,4.218a1.063,1.063,0,0,0,1.048,1.085,22.338,22.338,0,0,0,3.3.222c0.793-.024,1.636-0.024,2.479-0.024a1.6,1.6,0,0,1-.46-0.987A30.185,30.185,0,0,0,497.409,740.777Z" transform="translate(-497 -728)"/>
</svg>
